<?xml version="1.0" encoding="utf-8"?>
<svg width="24" height="24" viewBox="0 0 24 24" fill="none" xmlns="http://www.w3.org/2000/svg">
  <path fill-rule="evenodd" clip-rule="evenodd" d="M 23.141 12.326 C 23.145 12.76 21.999 13.118 21.56 13.114 C 21.528 13.113 21.496 13.111 21.452 13.102 L 20.683 13.044 L 19.237 15.86 C 19.188 15.977 19.16 16.058 19.045 16.058 L 18.65 16.063 C 18.389 16.063 18.416 16.014 18.447 15.871 L 19.004 13.362 L 18.993 12.94 L 18.599 12.913 C 18.121 12.921 17.533 12.803 17.059 12.684 L 16.395 13.677 C 16.287 13.841 16.318 13.874 16.203 13.875 C 15.942 13.874 15.987 13.851 16 13.682 L 16.18 12.501 C 16.175 12.451 16.19 12.395 16.223 12.365 C 16.217 12.346 16.192 12.332 16.199 12.32 C 16.193 12.3 16.219 12.283 16.252 12.253 C 16.202 12.225 16.185 12.168 16.18 12.117 L 15.966 10.942 C 15.946 10.771 15.909 10.75 16.157 10.744 C 16.272 10.743 16.252 10.78 16.361 10.937 L 17.071 11.955 C 17.534 11.827 18.111 11.731 18.582 11.736 L 18.971 11.711 L 18.96 11.289 L 18.326 8.777 C 18.293 8.63 18.257 8.578 18.518 8.579 L 18.913 8.574 C 19.027 8.573 19.05 8.65 19.11 8.779 L 20.657 11.589 L 21.423 11.534 C 21.467 11.542 21.506 11.531 21.537 11.533 C 21.977 11.536 23.136 11.891 23.141 12.326 Z M 1.319 13.321 C 0.767 13.321 0.319 12.873 0.319 12.321 C 0.319 11.769 0.767 11.321 1.319 11.321 C 1.871 11.321 2.319 11.769 2.319 12.321 C 2.319 12.873 1.871 13.321 1.319 13.321 Z M 3.319 12.571 C 3.181 12.571 3.069 12.459 3.069 12.321 C 3.069 12.183 3.181 12.071 3.319 12.071 L 4.319 12.071 C 4.457 12.071 4.569 12.183 4.569 12.321 C 4.569 12.459 4.457 12.571 4.319 12.571 L 3.319 12.571 Z M 5.819 12.571 C 5.681 12.571 5.569 12.459 5.569 12.321 C 5.569 12.183 5.681 12.071 5.819 12.071 L 6.819 12.071 C 6.957 12.071 7.069 12.183 7.069 12.321 C 7.069 12.459 6.957 12.571 6.819 12.571 L 5.819 12.571 Z M 8.319 12.571 C 8.181 12.571 8.069 12.459 8.069 12.321 C 8.069 12.183 8.181 12.071 8.319 12.071 L 9.319 12.071 C 9.457 12.071 9.569 12.183 9.569 12.321 C 9.569 12.459 9.457 12.571 9.319 12.571 L 8.319 12.571 Z M 10.819 12.571 C 10.681 12.571 10.569 12.459 10.569 12.321 C 10.569 12.183 10.681 12.071 10.819 12.071 L 11.819 12.071 C 11.957 12.071 12.069 12.183 12.069 12.321 C 12.069 12.459 11.957 12.571 11.819 12.571 L 10.819 12.571 Z M 13.319 12.571 C 13.181 12.571 13.069 12.459 13.069 12.321 C 13.069 12.183 13.181 12.071 13.319 12.071 L 14.319 12.071 C 14.457 12.071 14.569 12.183 14.569 12.321 C 14.569 12.459 14.457 12.571 14.319 12.571 L 13.319 12.571 Z" fill="#11397E"/>
</svg>